<svg xmlns="http://www.w3.org/2000/svg" width="55" height="23" fill="none" viewBox="0 0 55 23">
  <path fill="#E63E11" fill-rule="evenodd" d="M39.11 3.077h10.532V19.99H39.11V3.077z" clip-rule="evenodd"/>
  <path fill="#038141" fill-rule="evenodd" d="M8.438 3.077H18.97V19.99H8.438V3.077z" clip-rule="evenodd"/>
  <path fill="#038141" fill-rule="evenodd" d="M6.295 3.077h2.63a3.931 3.931 0 013.951 3.929v9.055a3.931 3.931 0 01-3.951 3.928h-2.63a3.931 3.931 0 01-3.951-3.928V7.006a3.931 3.931 0 013.951-3.929z" clip-rule="evenodd"/>
  <path fill="#fff" fill-opacity=".446" d="M6.228 7.583h1.607l2.813 7.667H8.823l-.597-1.717h-2.4l-.587 1.717H3.414l2.814-7.667zm1.705 4.73l-.902-2.71-.923 2.71h1.825z"/>
  <path fill="#E63E11" fill-rule="evenodd" d="M48.419 3.077h2.63A3.931 3.931 0 0155 7.006v9.055a3.931 3.931 0 01-3.951 3.928h-2.63a3.931 3.931 0 01-3.951-3.928V7.006a3.931 3.931 0 013.95-3.929z" clip-rule="evenodd"/>
  <path fill="#fff" fill-opacity=".446" d="M51.876 13.695v1.555h-5.42V7.583h5.322v1.555h-3.54v1.49h3.04v1.437h-3.04v1.63h3.638z"/>
  <path fill="#EE8100" fill-rule="evenodd" d="M13.232 3.077h10.532V19.99H13.232V3.077zM33.953 3.077h10.533V19.99H33.954V3.077z" clip-rule="evenodd"/>
  <path fill="#fff" fill-opacity=".446" d="M35.858 15.25V7.583h2.878c.638 0 1.195.1 1.673.302a3.39 3.39 0 011.195.821c.325.346.568.752.727 1.22.167.461.25.954.25 1.48 0 .583-.09 1.112-.271 1.587a3.426 3.426 0 01-.782 1.21c-.333.33-.739.59-1.217.777-.47.18-.995.27-1.575.27h-2.878zm4.91-3.844a2.81 2.81 0 00-.142-.918 1.996 1.996 0 00-.39-.724 1.727 1.727 0 00-.642-.464 2.17 2.17 0 00-.858-.162H37.64v4.557h1.097c.326 0 .616-.057.87-.173.253-.115.463-.273.63-.475a2.12 2.12 0 00.39-.723c.094-.281.141-.587.141-.918z"/>
  <path fill="#FECB02" fill-rule="evenodd" d="M22.85 3.077h11.122V19.99H22.85V3.077z" clip-rule="evenodd"/>
  <path fill="#85BB2F" fill-rule="evenodd" d="M23.39 3.077H12.858V19.99H23.39V3.077z" clip-rule="evenodd"/>
  <path fill="#fff" fill-opacity=".446" d="M24.898 11.287c0-.46.086-.918.26-1.371.174-.461.427-.871.76-1.231.334-.36.739-.652 1.217-.875.478-.223 1.02-.335 1.63-.335.723 0 1.35.155 1.878.464.536.31.934.713 1.195 1.21l-1.369.95a1.47 1.47 0 00-.336-.497 1.553 1.553 0 00-.435-.324 1.59 1.59 0 00-.489-.172 2.31 2.31 0 00-.488-.054 1.848 1.848 0 00-1.52.734c-.168.216-.29.46-.37.734-.08.274-.12.551-.12.832 0 .302.047.594.142.874.094.281.228.53.401.746.181.216.395.388.641.518.254.122.536.184.847.184.16 0 .323-.018.49-.054.173-.044.336-.105.488-.184.16-.086.304-.194.434-.324.13-.137.236-.302.315-.497l1.456.853c-.116.281-.29.533-.522.756-.224.223-.485.41-.782.562a4.23 4.23 0 01-.945.345c-.333.08-.659.12-.977.12a3.553 3.553 0 01-1.542-.336 4.048 4.048 0 01-1.206-.907 4.265 4.265 0 01-.782-1.274 4.036 4.036 0 01-.271-1.447zM21.873 13.285c0 .331-.07.619-.207.864-.137.245-.326.45-.564.615-.24.159-.518.281-.837.367-.318.08-.655.12-1.01.12h-3.758V7.582h4.29c.268 0 .51.058.728.173.217.115.402.266.554.453.152.18.268.39.348.627a2.03 2.03 0 01-.152 1.75 1.716 1.716 0 01-.826.733c.442.13.79.36 1.043.692.26.33.39.756.39 1.274zm-1.814-.357a.915.915 0 00-.207-.604.65.65 0 00-.52-.249h-2.054v1.674h1.977a.783.783 0 00.576-.227.8.8 0 00.228-.594zm-2.78-3.833v1.587h1.748c.196 0 .37-.065.521-.194.153-.13.229-.331.229-.605 0-.252-.07-.446-.207-.583a.635.635 0 00-.478-.205h-1.814z"/>
  <path fill="#fff" fill-rule="evenodd" d="M6.497 0h1.302c3.6 0 6.497 2.733 6.497 6.129v10.743c0 3.395-2.898 6.128-6.497 6.128H6.497C2.897 23 0 20.267 0 16.872V6.129C0 2.733 2.898 0 6.497 0z" clip-rule="evenodd"/>
  <path fill="#038141" fill-rule="evenodd" d="M6.578.88h1.14c3.154 0 5.693 2.524 5.693 5.66v9.92c0 3.136-2.539 5.66-5.692 5.66H6.578c-3.154 0-5.693-2.524-5.693-5.66V6.54c0-3.136 2.54-5.66 5.693-5.66z" clip-rule="evenodd"/>
  <path fill="#fff" d="M6.176 6.653H8.12l3.402 10.108H9.316l-.723-2.263H5.69l-.71 2.263H2.775L6.176 6.653zm2.062 6.236l-1.09-3.574-1.116 3.574h2.206z"/>
</svg>