<svg xmlns="http://www.w3.org/2000/svg" width="55" height="25" fill="none" viewBox="0 0 55 25">
  <path fill="#038141" fill-rule="evenodd" d="M6.365 3.345h11.002v18.383H6.365V3.345z" clip-rule="evenodd"/>
  <path fill="#E63E11" fill-rule="evenodd" d="M38.403 3.345h11v18.383h-11V3.345z" clip-rule="evenodd"/>
  <path fill="#038141" fill-rule="evenodd" d="M4.127 3.345h2.747c2.286 0 4.127 1.904 4.127 4.27v9.843c0 2.365-1.84 4.27-4.127 4.27H4.127C1.841 21.728 0 19.823 0 17.458V7.615c0-2.366 1.84-4.27 4.127-4.27z" clip-rule="evenodd"/>
  <path fill="#EE8100" fill-rule="evenodd" d="M33.017 3.345h11v18.383h-11V3.345z" clip-rule="evenodd"/>
  <path fill="#fff" fill-opacity=".446" d="M35.006 16.576V8.243h3.006c.666 0 1.248.11 1.747.328.5.22.916.517 1.248.892.34.376.594.818.76 1.327.174.5.261 1.036.261 1.608 0 .633-.094 1.209-.283 1.725-.19.509-.462.947-.817 1.315-.348.36-.771.641-1.27.845a4.414 4.414 0 01-1.646.293h-3.006zm5.128-4.178c0-.368-.05-.7-.148-.998a2.198 2.198 0 00-.408-.787 1.809 1.809 0 00-.67-.504 2.189 2.189 0 00-.896-.176h-1.145v4.953h1.145c.34 0 .643-.063.908-.188a1.82 1.82 0 00.658-.516c.181-.227.318-.49.408-.787.099-.305.148-.637.148-.997z"/>
  <path fill="#FECB02" fill-rule="evenodd" d="M21.42 3.345h11.615v18.383H21.42V3.345z" clip-rule="evenodd"/>
  <path fill="#85BB2F" fill-rule="evenodd" d="M21.983 3.345h-11v18.383h11V3.345z" clip-rule="evenodd"/>
  <path fill="#fff" fill-opacity=".446" d="M24.601 12.268c0-.5.09-.997.272-1.49.182-.501.447-.947.794-1.338a4.042 4.042 0 011.271-.951c.5-.243 1.066-.364 1.702-.364.756 0 1.41.168 1.962.505.56.336.976.775 1.248 1.314l-1.43 1.033c-.09-.219-.207-.399-.35-.54a1.629 1.629 0 00-.455-.352 1.619 1.619 0 00-.51-.187 2.322 2.322 0 00-.51-.06c-.356 0-.666.075-.93.224-.266.149-.485.34-.659.575-.174.235-.303.5-.386.798a3.339 3.339 0 00-.124.904c0 .329.049.646.147.95.098.306.238.576.42.81.189.235.412.423.67.564.264.133.559.2.884.2.166 0 .337-.02.51-.06a2.25 2.25 0 00.511-.199c.166-.094.318-.21.454-.352.136-.149.246-.329.329-.54l1.52.928c-.121.305-.302.579-.544.821a3.23 3.23 0 01-.817.61c-.31.165-.64.29-.987.376-.348.086-.689.13-1.021.13a3.59 3.59 0 01-1.611-.365 4.25 4.25 0 01-1.26-.986 4.543 4.543 0 01-1.1-2.958zM20.398 14.73c0 .36-.072.672-.215.938a1.97 1.97 0 01-.59.67c-.25.172-.541.305-.874.399-.333.086-.684.129-1.055.129h-3.925V8.532h4.48c.28 0 .534.063.761.188.227.125.42.29.579.493.158.195.28.422.363.68a2.276 2.276 0 01-.159 1.902c-.19.352-.477.618-.862.798.46.141.824.392 1.089.752.272.36.408.821.408 1.384zm-1.895-.388a1.02 1.02 0 00-.215-.657.669.669 0 00-.545-.27H15.6v1.82h2.065a.8.8 0 00.601-.247c.16-.165.238-.38.238-.646zM15.6 10.175v1.726h1.827c.204 0 .386-.07.544-.212.16-.14.239-.36.239-.657 0-.274-.072-.485-.216-.634a.65.65 0 00-.5-.223H15.6z"/>
  <path fill="#fff" fill-rule="evenodd" d="M15.865 0h1.36c3.76 0 6.786 2.971 6.786 6.661V18.34c0 3.69-3.027 6.661-6.786 6.661h-1.36c-3.76 0-6.786-2.971-6.786-6.661V6.66C9.079 2.971 12.105 0 15.865 0z" clip-rule="evenodd"/>
  <path fill="#fff" fill-opacity=".446" d="M4.056 8.243h1.68l2.938 8.333H6.768l-.624-1.866H3.637l-.613 1.866H1.118l2.938-8.333zm1.782 5.14l-.942-2.945-.964 2.946h1.906z"/>
  <path fill="#E63E11" fill-rule="evenodd" d="M48.126 3.345h2.747c2.286 0 4.127 1.904 4.127 4.27v9.843c0 2.365-1.84 4.27-4.127 4.27h-2.747c-2.286 0-4.127-1.905-4.127-4.27V7.615c0-2.366 1.84-4.27 4.127-4.27z" clip-rule="evenodd"/>
  <path fill="#fff" fill-opacity=".446" d="M51.737 14.886v1.69h-5.661V8.243h5.559v1.69h-3.699v1.62h3.177v1.56h-3.177v1.773h3.8z"/>
  <path fill="#85BB2F" fill-rule="evenodd" d="M15.949.956h1.191c3.294 0 5.946 2.744 5.946 6.152v10.784c0 3.408-2.652 6.152-5.945 6.152h-1.192c-3.294 0-5.946-2.744-5.946-6.152V7.108c0-3.408 2.652-6.152 5.946-6.152z" clip-rule="evenodd"/>
  <path fill="#fff" d="M20.97 15.402c0 .475-.086.888-.26 1.238-.174.351-.412.645-.714.882a3.408 3.408 0 01-1.056.527 4.68 4.68 0 01-1.276.17h-4.747V7.23h5.42c.338 0 .644.083.918.248.275.165.508.382.7.65.192.258.339.557.44.898.109.33.164.67.164 1.02 0 .527-.12 1.022-.357 1.486a2.287 2.287 0 01-1.043 1.053c.558.185.997.516 1.318.99.329.475.493 1.083.493 1.826zm-2.29-.51c0-.34-.088-.63-.261-.867-.174-.237-.394-.356-.659-.356h-2.593v2.399h2.497a.93.93 0 00.727-.325c.192-.217.288-.5.288-.851zm-3.513-5.494v2.275h2.209a.922.922 0 00.658-.279c.192-.185.289-.474.289-.866 0-.362-.087-.64-.261-.836a.76.76 0 00-.604-.294h-2.291z"/>
</svg>