<svg xmlns="http://www.w3.org/2000/svg" width="55" height="25" fill="none" viewBox="0 0 55 25">
  <path fill="#038141" fill-rule="evenodd" d="M6.365 3.345h11.002v18.383H6.365V3.345z" clip-rule="evenodd"/>
  <path fill="#E63E11" fill-rule="evenodd" d="M38.403 3.345h11v18.383h-11V3.345z" clip-rule="evenodd"/>
  <path fill="#038141" fill-rule="evenodd" d="M4.127 3.345h2.747c2.286 0 4.127 1.904 4.127 4.27v9.843c0 2.365-1.84 4.27-4.127 4.27H4.127C1.841 21.728 0 19.823 0 17.458V7.615c0-2.366 1.84-4.27 4.127-4.27z" clip-rule="evenodd"/>
  <path fill="#EE8100" fill-rule="evenodd" d="M33.017 3.345h11v18.383h-11V3.345z" clip-rule="evenodd"/>
  <path fill="#fff" fill-opacity=".446" d="M35.702 16.576V8.243h3.006c.666 0 1.248.11 1.747.328.5.22.915.517 1.248.892.34.376.594.818.76 1.327.174.5.261 1.036.261 1.608 0 .633-.094 1.209-.284 1.725a3.74 3.74 0 01-.816 1.315c-.348.36-.772.641-1.271.845a4.415 4.415 0 01-1.645.293h-3.006zm5.128-4.178c0-.368-.05-.7-.148-.998a2.2 2.2 0 00-.408-.787 1.809 1.809 0 00-.67-.504 2.19 2.19 0 00-.896-.176h-1.146v4.953h1.146c.34 0 .643-.063.908-.188a1.82 1.82 0 00.658-.516c.181-.227.317-.49.408-.787.098-.305.148-.637.148-.997z"/>
  <path fill="#FECB02" fill-rule="evenodd" d="M21.42 3.345h11.615v18.383H21.42V3.345z" clip-rule="evenodd"/>
  <path fill="#85BB2F" fill-rule="evenodd" d="M21.983 3.345h-11v18.383h11V3.345z" clip-rule="evenodd"/>
  <path fill="#fff" fill-opacity=".446" d="M23.558 12.629c0-.501.09-.998.272-1.491.181-.501.446-.947.794-1.338a4.042 4.042 0 011.27-.951c.5-.243 1.067-.364 1.702-.364.756 0 1.41.168 1.963.505.56.336.976.774 1.248 1.314l-1.43 1.033c-.09-.219-.208-.399-.351-.54a1.63 1.63 0 00-.454-.352 1.619 1.619 0 00-.51-.188 2.325 2.325 0 00-.511-.058c-.356 0-.666.074-.93.223-.265.148-.484.34-.658.575-.174.235-.303.5-.386.798a3.339 3.339 0 00-.125.904c0 .329.05.645.148.95.098.306.238.576.42.81.188.235.412.423.669.564.264.133.56.2.884.2.167 0 .337-.02.511-.06a2.25 2.25 0 00.51-.199c.167-.094.318-.211.454-.352.137-.149.246-.329.33-.54l1.52.928a2.417 2.417 0 01-.545.821 3.232 3.232 0 01-.817.61c-.31.165-.639.29-.987.376-.348.086-.688.13-1.02.13a3.59 3.59 0 01-1.612-.365 4.248 4.248 0 01-1.26-.986 4.543 4.543 0 01-1.1-2.958zM18.659 14.44c0 .36-.072.673-.216.939a1.97 1.97 0 01-.59.67c-.25.171-.54.304-.873.398-.333.086-.685.13-1.055.13H12V8.242h4.48c.28 0 .534.062.76.187.228.126.42.29.58.493.158.196.28.423.362.681a2.275 2.275 0 01-.159 1.902c-.189.352-.476.618-.862.798.462.14.825.391 1.09.751.272.36.408.822.408 1.385zm-1.895-.387a1.02 1.02 0 00-.215-.658.668.668 0 00-.545-.27H13.86v1.82h2.065a.8.8 0 00.601-.247c.159-.164.238-.38.238-.645zM13.86 9.886v1.725h1.827c.204 0 .385-.07.544-.211.159-.14.238-.36.238-.657 0-.274-.072-.486-.215-.634a.651.651 0 00-.5-.223H13.86z"/>
  <path fill="#fff" fill-rule="evenodd" d="M26.548 0h1.36c3.76 0 6.786 2.971 6.786 6.661V18.34c0 3.69-3.026 6.661-6.786 6.661h-1.36c-3.76 0-6.786-2.971-6.786-6.661V6.66C19.762 2.971 22.79 0 26.548 0z" clip-rule="evenodd"/>
  <path fill="#fff" fill-opacity=".446" d="M4.056 8.243h1.68l2.938 8.333H6.768l-.624-1.866H3.637l-.613 1.866H1.118l2.938-8.333zm1.782 5.14l-.942-2.945-.964 2.946h1.906z"/>
  <path fill="#E63E11" fill-rule="evenodd" d="M48.126 3.345h2.747c2.286 0 4.127 1.904 4.127 4.27v9.843c0 2.365-1.84 4.27-4.127 4.27h-2.747c-2.286 0-4.127-1.905-4.127-4.27V7.615c0-2.366 1.84-4.27 4.127-4.27z" clip-rule="evenodd"/>
  <path fill="#fff" fill-opacity=".446" d="M51.737 14.886v1.69h-5.661V8.243h5.559v1.69h-3.699v1.62h3.177v1.56h-3.177v1.773h3.8z"/>
  <path fill="#FECB02" fill-rule="evenodd" d="M26.632.956h1.191c3.294 0 5.946 2.744 5.946 6.152v10.784c0 3.408-2.652 6.152-5.946 6.152h-1.191c-3.294 0-5.946-2.744-5.946-6.152V7.108c0-3.408 2.652-6.152 5.946-6.152z" clip-rule="evenodd"/>
  <path fill="#fff" d="M22.638 12.632c0-.66.11-1.315.33-1.965.219-.66.54-1.248.96-1.764.42-.516.933-.934 1.537-1.254.603-.32 1.29-.48 2.058-.48.914 0 1.705.222 2.373.666a4.1 4.1 0 011.51 1.733l-1.73 1.362a2.14 2.14 0 00-.425-.712 2.001 2.001 0 00-.549-.464 1.857 1.857 0 00-.617-.248 2.587 2.587 0 00-.617-.077c-.43 0-.805.098-1.125.294-.32.196-.586.449-.796.758-.21.31-.366.66-.467 1.053-.1.391-.15.789-.15 1.191 0 .433.059.851.178 1.254.119.402.288.758.507 1.067.23.31.499.558.81.743.32.176.677.263 1.07.263.201 0 .407-.026.617-.077.22-.062.426-.15.618-.263.201-.124.384-.279.549-.464.164-.196.297-.434.398-.712l1.838 1.222a3.22 3.22 0 01-.659 1.084c-.283.32-.612.588-.987.804a4.958 4.958 0 01-2.429.666c-.704 0-1.354-.16-1.948-.48a5.23 5.23 0 01-1.523-1.3 6.3 6.3 0 01-1.33-3.9z"/>
</svg>