<svg xmlns="http://www.w3.org/2000/svg" width="55" height="25" fill="none" viewBox="0 0 55 25">
  <path fill="#038141" fill-rule="evenodd" d="M6.365 3.345h11.002v18.383H6.365V3.345z" clip-rule="evenodd"/>
  <path fill="#E63E11" fill-rule="evenodd" d="M38.403 3.345h11v18.383h-11V3.345z" clip-rule="evenodd"/>
  <path fill="#038141" fill-rule="evenodd" d="M4.127 3.345h2.747c2.286 0 4.127 1.904 4.127 4.27v9.843c0 2.365-1.84 4.27-4.127 4.27H4.127C1.841 21.728 0 19.823 0 17.458V7.615c0-2.366 1.84-4.27 4.127-4.27z" clip-rule="evenodd"/>
  <path fill="#EE8100" fill-rule="evenodd" d="M33.017 3.345h11v18.383h-11V3.345z" clip-rule="evenodd"/>
  <path fill="#fff" fill-opacity=".446" d="M35.006 16.866V8.532h3.006c.666 0 1.248.11 1.747.329.5.219.916.516 1.248.892.34.375.594.817.76 1.326.174.5.261 1.037.261 1.608 0 .634-.094 1.21-.283 1.726-.19.508-.462.946-.817 1.314-.348.36-.771.642-1.27.845a4.414 4.414 0 01-1.646.294h-3.006zm5.128-4.179c0-.368-.05-.7-.148-.998a2.198 2.198 0 00-.408-.786 1.809 1.809 0 00-.67-.505 2.188 2.188 0 00-.896-.176h-1.145v4.954h1.145c.34 0 .643-.063.908-.188a1.82 1.82 0 00.658-.517c.181-.227.318-.489.408-.786.099-.305.148-.638.148-.998z"/>
  <path fill="#FECB02" fill-rule="evenodd" d="M21.42 3.345h11.615v18.383H21.42V3.345z" clip-rule="evenodd"/>
  <path fill="#85BB2F" fill-rule="evenodd" d="M21.983 3.345h-11v18.383h11V3.345z" clip-rule="evenodd"/>
  <path fill="#fff" fill-opacity=".446" d="M22.697 12.268c0-.5.09-.997.272-1.49.181-.501.446-.947.794-1.338a4.042 4.042 0 011.27-.951c.5-.243 1.067-.364 1.702-.364.757 0 1.41.168 1.963.505.56.336.976.775 1.248 1.314l-1.43 1.033c-.09-.219-.207-.399-.351-.54a1.629 1.629 0 00-.454-.352 1.618 1.618 0 00-.51-.187 2.322 2.322 0 00-.511-.06c-.356 0-.666.075-.93.224-.265.149-.484.34-.658.575-.174.235-.303.5-.386.798a3.339 3.339 0 00-.125.904c0 .329.05.646.148.95.098.306.238.576.42.81.189.235.412.423.669.564.265.133.56.2.885.2.166 0 .336-.02.51-.06a2.25 2.25 0 00.51-.199c.167-.094.318-.21.454-.352.137-.149.246-.329.33-.54l1.52.928c-.121.305-.303.579-.545.821a3.23 3.23 0 01-.817.61 4.3 4.3 0 01-.987.376c-.348.086-.688.13-1.02.13a3.59 3.59 0 01-1.612-.365 4.249 4.249 0 01-1.259-.986 4.543 4.543 0 01-1.1-2.958zM20.398 14.44c0 .36-.072.673-.215.939a1.97 1.97 0 01-.59.67c-.25.171-.541.304-.874.398-.333.086-.684.13-1.055.13h-3.925V8.242h4.48c.28 0 .534.062.761.187.227.126.42.29.579.493.158.196.28.423.363.681a2.276 2.276 0 01-.159 1.902c-.19.352-.477.618-.862.798.46.14.824.391 1.089.751.272.36.408.822.408 1.385zm-1.895-.387a1.02 1.02 0 00-.215-.658.669.669 0 00-.545-.27H15.6v1.82h2.065a.8.8 0 00.601-.247c.16-.164.238-.38.238-.645zM15.6 9.886v1.725h1.827c.204 0 .386-.07.544-.211.16-.14.239-.36.239-.657 0-.274-.072-.486-.216-.634a.651.651 0 00-.5-.223H15.6zM4.056 8.243h1.68l2.938 8.333H6.768l-.624-1.866H3.637l-.613 1.866H1.118l2.938-8.333zm1.782 5.14l-.942-2.945-.964 2.946h1.906z"/>
  <path fill="#E63E11" fill-rule="evenodd" d="M48.126 3.345h2.747c2.286 0 4.127 1.904 4.127 4.27v9.843c0 2.365-1.84 4.27-4.127 4.27h-2.747c-2.286 0-4.127-1.905-4.127-4.27V7.615c0-2.366 1.84-4.27 4.127-4.27z" clip-rule="evenodd"/>
  <path fill="#fff" fill-opacity=".446" d="M53.09 14.886v1.69h-5.662V8.243h5.56v1.69h-3.7v1.62h3.177v1.56H49.29v1.773h3.8z"/>
  <path fill="#fff" fill-rule="evenodd" d="M37.837 0h1.36c3.76 0 6.786 2.971 6.786 6.661V18.34c0 3.69-3.026 6.661-6.786 6.661h-1.36c-3.76 0-6.786-2.971-6.786-6.661V6.66c0-3.69 3.027-6.661 6.786-6.661z" clip-rule="evenodd"/>
  <path fill="#EE8100" fill-rule="evenodd" d="M37.921.956h1.192c3.294 0 5.946 2.744 5.946 6.152v10.784c0 3.408-2.652 6.152-5.946 6.152h-1.192c-3.294 0-5.945-2.744-5.945-6.152V7.108c0-3.408 2.651-6.152 5.945-6.152z" clip-rule="evenodd"/>
  <path fill="#fff" d="M34.27 18.219V7.23h3.637c.805 0 1.509.145 2.113.434.603.289 1.106.68 1.509 1.176.411.495.718 1.078.919 1.748.21.66.316 1.367.316 2.12 0 .836-.115 1.595-.343 2.276a5.022 5.022 0 01-.988 1.733c-.421.474-.933.846-1.537 1.114-.595.258-1.258.387-1.99.387h-3.635zm6.202-5.51c0-.484-.06-.923-.178-1.315a2.996 2.996 0 00-.494-1.037c-.22-.288-.49-.51-.81-.665a2.459 2.459 0 00-1.083-.232H36.52v6.53h1.386a2.36 2.36 0 001.097-.247 2.24 2.24 0 00.796-.681c.22-.3.384-.645.494-1.037.119-.402.178-.84.178-1.315z"/>
</svg>