<svg xmlns="http://www.w3.org/2000/svg" width="55" height="24" fill="none" viewBox="0 0 55 24">
  <path fill="#E63E11" fill-rule="evenodd" d="M37.468 3.211h10.733v17.648H37.468V3.21z" clip-rule="evenodd"/>
  <path fill="#fff" fill-opacity=".446" d="M50.477 14.29v1.623h-5.523v-8h5.424v1.622h-3.609v1.555h3.1v1.5h-3.1v1.7h3.708z"/>
  <path fill="#E63E11" fill-rule="evenodd" d="M46.955 3.211h2.68c2.23 0 4.026 1.828 4.026 4.1v9.448c0 2.271-1.796 4.1-4.026 4.1h-2.68c-2.231 0-4.027-1.829-4.027-4.1V7.31c0-2.27 1.796-4.099 4.027-4.099z" clip-rule="evenodd"/>
  <path fill="#038141" fill-rule="evenodd" d="M6.21 3.211h10.734v17.648H6.21V3.21z" clip-rule="evenodd"/>
  <path fill="#EE8100" fill-rule="evenodd" d="M32.213 3.211h10.733v17.648H32.213V3.21z" clip-rule="evenodd"/>
  <path fill="#fff" fill-opacity=".446" d="M33.074 15.913v-8h2.933c.65 0 1.218.105 1.705.315a3.472 3.472 0 011.96 2.13c.169.48.253.995.253 1.544a4.72 4.72 0 01-.276 1.656c-.185.488-.45.91-.797 1.262a3.58 3.58 0 01-1.24.812 4.369 4.369 0 01-1.605.281h-2.933zm5.003-4.011c0-.353-.048-.673-.144-.958a2.098 2.098 0 00-.398-.755 1.762 1.762 0 00-.653-.485 2.166 2.166 0 00-.875-.169H34.89v4.756h1.118c.332 0 .627-.06.886-.18.258-.12.472-.286.642-.497.177-.217.31-.469.398-.755.096-.292.144-.612.144-.957z"/>
  <path fill="#FECB02" fill-rule="evenodd" d="M20.898 3.211h11.333v17.648H20.898V3.21z" clip-rule="evenodd"/>
  <path fill="#85BB2F" fill-rule="evenodd" d="M21.448 3.211H10.715v17.648h10.733V3.21z" clip-rule="evenodd"/>
  <path fill="#fff" fill-opacity=".446" d="M22.984 11.778c0-.481.089-.958.266-1.431.177-.481.435-.91.774-1.285a3.94 3.94 0 011.24-.913c.487-.232 1.04-.349 1.66-.349.738 0 1.377.162 1.915.485.546.323.952.743 1.218 1.262l-1.395.991a1.537 1.537 0 00-.343-.518 1.588 1.588 0 00-.443-.338 1.596 1.596 0 00-.498-.18 2.302 2.302 0 00-.498-.057c-.347 0-.65.072-.907.214a2.007 2.007 0 00-.642.552c-.17.226-.296.481-.377.767a3.157 3.157 0 00-.122.867c0 .316.049.62.144.913.096.293.233.552.41.778.184.225.402.405.653.54.258.128.546.192.863.192.163 0 .329-.019.498-.056.178-.045.344-.11.498-.192.163-.09.31-.203.443-.338a1.65 1.65 0 00.321-.518l1.483.89a2.316 2.316 0 01-.53.789 3.148 3.148 0 01-.798.586 4.251 4.251 0 01-.963.36c-.34.083-.671.124-.996.124a3.55 3.55 0 01-1.572-.35 4.137 4.137 0 01-1.228-.946 4.468 4.468 0 01-.797-1.33c-.185-.495-.277-.998-.277-1.51zM19.901 13.862c0 .346-.07.646-.21.902a1.9 1.9 0 01-.575.642 2.875 2.875 0 01-.853.383 4.161 4.161 0 01-1.029.124h-3.83v-8h4.372c.273 0 .52.06.742.18.221.12.41.278.564.473.155.188.273.406.355.654a2.157 2.157 0 01-.155 1.825 1.764 1.764 0 01-.841.767c.45.135.804.375 1.062.72.266.346.398.79.398 1.33zm-1.848-.371a.97.97 0 00-.21-.631.656.656 0 00-.532-.26H15.22v1.747h2.014a.788.788 0 00.587-.237c.155-.157.232-.364.232-.62zm-2.834-4v1.656h1.783c.199 0 .376-.068.53-.203.156-.135.233-.346.233-.631 0-.263-.07-.466-.21-.609a.64.64 0 00-.487-.214h-1.849z"/>
  <path fill="#fff" fill-rule="evenodd" d="M47.052 0h1.327C52.047 0 55 2.852 55 6.395v11.21C55 21.148 52.047 24 48.38 24h-1.328c-3.668 0-6.62-2.852-6.62-6.395V6.395c0-3.543 2.952-6.395 6.62-6.395z" clip-rule="evenodd"/>
  <path fill="#E63E11" fill-rule="evenodd" d="M47.134.918h1.163c3.214 0 5.801 2.634 5.801 5.906v10.352c0 3.272-2.587 5.906-5.801 5.906h-1.163c-3.214 0-5.8-2.634-5.8-5.906V6.824c0-3.272 2.586-5.906 5.8-5.906z" clip-rule="evenodd"/>
  <path fill="#fff" d="M50.467 15.35v2.14h-6.68V6.942h6.559v2.14h-4.364v2.05h3.748v1.975h-3.748v2.244h4.485z"/>
  <path fill="#038141" fill-rule="evenodd" d="M4.027 3.211h2.68c2.23 0 4.026 1.828 4.026 4.1v9.448c0 2.271-1.796 4.1-4.026 4.1h-2.68C1.796 20.858 0 19.03 0 16.758V7.31c0-2.27 1.796-4.099 4.027-4.099z" clip-rule="evenodd"/>
  <path fill="#fff" fill-opacity=".446" d="M3.958 7.913h1.638l2.867 8h-1.86l-.609-1.791H3.548l-.598 1.791H1.09l2.868-8zm1.737 4.935l-.918-2.828-.941 2.828h1.86z"/>
</svg>