<svg xmlns="http://www.w3.org/2000/svg" width="100" height="42" fill="none" viewBox="0 0 100 42">
  <path fill="#E63E11" fill-rule="evenodd" d="M71.11 5.62h19.149v30.882h-19.15V5.62z" clip-rule="evenodd"/>
  <path fill="#038141" fill-rule="evenodd" d="M15.342 5.62h19.15v30.882h-19.15V5.62z" clip-rule="evenodd"/>
  <path fill="#038141" fill-rule="evenodd" d="M11.446 5.62h4.781c3.98 0 7.184 3.199 7.184 7.173v16.536a7.163 7.163 0 01-7.184 7.173h-4.781c-3.98 0-7.184-3.199-7.184-7.173V12.793a7.163 7.163 0 017.184-7.174z" clip-rule="evenodd"/>
  <path fill="#fff" fill-opacity=".446" d="M11.323 13.847h2.922l5.115 14.001h-3.318l-1.086-3.135h-4.364l-1.066 3.135H6.208l5.115-14zm3.1 8.638l-1.639-4.95-1.679 4.95h3.318z"/>
  <path fill="#E63E11" fill-rule="evenodd" d="M88.034 5.62h4.782c3.98 0 7.184 3.199 7.184 7.173v16.536a7.163 7.163 0 01-7.184 7.173h-4.782c-3.98 0-7.184-3.199-7.184-7.173V12.793a7.163 7.163 0 017.184-7.174z" clip-rule="evenodd"/>
  <path fill="#fff" fill-opacity=".446" d="M94.32 25.009v2.84h-9.855V13.846h9.677v2.84h-6.438v2.721h5.53v2.623h-5.53v2.978h6.616z"/>
  <path fill="#EE8100" fill-rule="evenodd" d="M24.058 5.62h19.15v30.882h-19.15V5.62zM61.734 5.62h19.15v30.882h-19.15V5.62z" clip-rule="evenodd"/>
  <path fill="#fff" fill-opacity=".446" d="M65.197 27.848v-14h5.233c1.158 0 2.172.183 3.04.552.87.368 1.594.867 2.173 1.498a6.05 6.05 0 011.323 2.229c.303.84.454 1.741.454 2.701 0 1.065-.164 2.031-.493 2.899a6.258 6.258 0 01-1.422 2.208c-.606.605-1.343 1.078-2.212 1.42-.856.329-1.81.493-2.863.493h-5.234zm8.925-7.02c0-.618-.085-1.177-.256-1.676a3.651 3.651 0 00-.711-1.321 3.14 3.14 0 00-1.165-.848 3.929 3.929 0 00-1.56-.296h-1.995v8.322h1.995c.592 0 1.119-.106 1.58-.316.46-.21.842-.5 1.145-.868a3.88 3.88 0 00.71-1.32 5.266 5.266 0 00.258-1.677z"/>
  <path fill="#FECB02" fill-rule="evenodd" d="M41.547 5.62h20.22v30.882h-20.22V5.62z" clip-rule="evenodd"/>
  <path fill="#85BB2F" fill-rule="evenodd" d="M42.528 5.62h-19.15v30.882h19.15V5.62z" clip-rule="evenodd"/>
  <path fill="#fff" fill-opacity=".446" d="M45.268 20.611c0-.841.158-1.676.474-2.504a6.832 6.832 0 011.382-2.248 7.023 7.023 0 012.212-1.598c.87-.407 1.857-.61 2.962-.61 1.317 0 2.456.282 3.417.847.974.566 1.698 1.302 2.172 2.209l-2.488 1.735a2.686 2.686 0 00-.612-.907c-.237-.25-.5-.447-.79-.592a2.88 2.88 0 00-.889-.315 4.178 4.178 0 00-.889-.099c-.618 0-1.158.125-1.619.375-.46.25-.843.572-1.145.966a4.014 4.014 0 00-.672 1.341 5.424 5.424 0 00-.217 1.519c0 .552.086 1.084.257 1.597.17.512.414.966.73 1.36.33.395.718.71 1.166.947.46.223.974.335 1.54.335.29 0 .586-.033.889-.099.316-.078.612-.19.888-.335a3.45 3.45 0 00.79-.591c.237-.25.428-.552.573-.907l2.646 1.557a4.05 4.05 0 01-.948 1.38c-.408.408-.882.75-1.422 1.026a7.668 7.668 0 01-1.718.631 7.638 7.638 0 01-1.777.217c-1.014 0-1.949-.204-2.804-.611a7.363 7.363 0 01-2.192-1.657 7.788 7.788 0 01-1.422-2.326 7.394 7.394 0 01-.494-2.643zM39.769 24.26c0 .604-.125 1.13-.376 1.577-.25.447-.592.821-1.026 1.124-.435.289-.942.513-1.521.67a7.559 7.559 0 01-1.837.217h-6.832v-14h7.8c.487 0 .928.105 1.323.315.395.21.73.486 1.007.828.277.329.487.71.632 1.144a3.72 3.72 0 01-.276 3.195c-.33.591-.83 1.038-1.501 1.34.803.237 1.435.658 1.896 1.262.474.605.71 1.38.71 2.327zm-3.298-.652c0-.433-.125-.801-.375-1.104a1.178 1.178 0 00-.948-.453h-3.733v3.056h3.594c.422 0 .77-.138 1.047-.414.277-.276.415-.638.415-1.085zm-5.056-7v2.899h3.18c.355 0 .671-.119.948-.355.276-.237.414-.605.414-1.104 0-.46-.125-.815-.375-1.065a1.152 1.152 0 00-.869-.375h-3.298z"/>
  <path fill="#fff" fill-rule="evenodd" d="M11.812 0h2.368c6.544 0 11.812 4.991 11.812 11.191V30.81c0 6.2-5.268 11.191-11.812 11.191h-2.368C5.268 42 0 37.009 0 30.809V11.19C0 4.991 5.268 0 11.812 0z" clip-rule="evenodd"/>
  <path fill="#038141" fill-rule="evenodd" d="M11.96 1.607h2.074a10.32 10.32 0 0110.35 10.335v18.116a10.32 10.32 0 01-10.35 10.335h-2.075A10.32 10.32 0 011.61 30.058V11.942A10.32 10.32 0 0111.96 1.607z" clip-rule="evenodd"/>
  <path fill="#fff" d="M11.23 12.149h3.534l6.186 18.459h-4.013l-1.313-4.134h-5.278l-1.29 4.134H5.044l6.186-18.46zm3.749 11.387l-1.982-6.526-2.03 6.526h4.012z"/>
</svg>