<svg xmlns="http://www.w3.org/2000/svg" width="100" height="44" fill="none" viewBox="0 0 100 44">
  <path fill="#038141" fill-rule="evenodd" d="M11.574 5.887h20.002V38.24H11.574V5.887z" clip-rule="evenodd"/>
  <path fill="#E63E11" fill-rule="evenodd" d="M69.823 5.887h20.002V38.24H69.823V5.887z" clip-rule="evenodd"/>
  <path fill="#038141" fill-rule="evenodd" d="M7.504 5.887h4.994a7.493 7.493 0 017.504 7.515v17.323a7.493 7.493 0 01-7.504 7.516H7.504A7.493 7.493 0 010 30.725V13.402a7.493 7.493 0 017.504-7.515z" clip-rule="evenodd"/>
  <path fill="#EE8100" fill-rule="evenodd" d="M60.03 5.887h20.002V38.24H60.03V5.887z" clip-rule="evenodd"/>
  <path fill="#fff" fill-opacity=".446" d="M63.647 29.174V14.507h5.466c1.21 0 2.27.193 3.177.578.907.386 1.664.91 2.269 1.57a6.34 6.34 0 011.382 2.335 8.32 8.32 0 01.474 2.83c0 1.115-.172 2.128-.515 3.037a6.558 6.558 0 01-1.486 2.313c-.632.634-1.402 1.13-2.31 1.488-.894.344-1.89.516-2.99.516h-5.467zm9.324-7.354c0-.647-.09-1.233-.269-1.756a3.827 3.827 0 00-.742-1.384 3.28 3.28 0 00-1.217-.889c-.481-.206-1.025-.31-1.63-.31H67.03V26.2h2.083c.62 0 1.17-.11 1.65-.33.482-.22.88-.523 1.197-.91.33-.398.577-.86.742-1.383a5.529 5.529 0 00.269-1.756z"/>
  <path fill="#FECB02" fill-rule="evenodd" d="M38.945 5.887h21.12V38.24h-21.12V5.887z" clip-rule="evenodd"/>
  <path fill="#85BB2F" fill-rule="evenodd" d="M39.97 5.887H19.968V38.24H39.97V5.887z" clip-rule="evenodd"/>
  <path fill="#fff" fill-opacity=".446" d="M44.73 21.593c0-.882.164-1.756.494-2.624a7.158 7.158 0 011.444-2.355 7.335 7.335 0 012.31-1.673c.908-.427 1.94-.64 3.094-.64 1.375 0 2.565.295 3.569.888 1.017.592 1.774 1.363 2.269 2.313l-2.6 1.818a2.815 2.815 0 00-.639-.95 2.954 2.954 0 00-.825-.62 3.004 3.004 0 00-.928-.33 4.36 4.36 0 00-.928-.104c-.647 0-1.21.131-1.692.393-.481.262-.88.599-1.196 1.012-.316.413-.55.881-.701 1.405a5.704 5.704 0 00-.227 1.59c0 .579.09 1.137.268 1.674.179.537.433 1.012.763 1.425.344.413.75.744 1.217.992a3.628 3.628 0 001.609.351c.303 0 .612-.034.928-.103.33-.083.64-.2.928-.351.303-.166.578-.372.825-.62.248-.262.447-.579.599-.95l2.764 1.632c-.22.537-.55 1.019-.99 1.446a5.863 5.863 0 01-1.486 1.074c-.563.29-1.162.51-1.794.661a7.955 7.955 0 01-1.857.227c-1.058 0-2.035-.213-2.929-.64a7.694 7.694 0 01-2.29-1.735 8.165 8.165 0 01-1.484-2.438 7.77 7.77 0 01-.516-2.768zM37.087 25.924c0 .633-.13 1.184-.392 1.653-.26.468-.618.86-1.072 1.177a5.401 5.401 0 01-1.588.702 7.873 7.873 0 01-1.919.228H24.98V15.016h8.147c.509 0 .97.11 1.382.33.413.221.763.51 1.052.869.289.344.509.743.66 1.198a3.904 3.904 0 01-.289 3.347c-.343.62-.866 1.087-1.567 1.404.838.248 1.499.689 1.98 1.322.495.634.742 1.446.742 2.438zm-3.444-.682c0-.454-.13-.84-.392-1.157a1.23 1.23 0 00-.99-.475h-3.899v3.202h3.754c.44 0 .805-.144 1.094-.434.288-.289.433-.668.433-1.136zm-5.28-7.334v3.037h3.32c.371 0 .702-.124.99-.372.29-.247.433-.633.433-1.157 0-.482-.13-.853-.391-1.115a1.202 1.202 0 00-.908-.392h-3.445z"/>
  <path fill="#fff" fill-rule="evenodd" d="M28.845 0h2.473c6.835 0 12.338 5.229 12.338 11.724v20.552C43.656 38.77 38.153 44 31.318 44h-2.473c-6.835 0-12.338-5.229-12.338-11.724V11.724C16.507 5.23 22.01 0 28.845 0z" clip-rule="evenodd"/>
  <path fill="#fff" fill-opacity=".446" d="M7.375 14.507h3.053l5.342 14.667h-3.465l-1.134-3.284H6.612l-1.114 3.284H2.033l5.342-14.667zm3.239 9.048L8.902 18.37l-1.754 5.185h3.466z"/>
  <path fill="#E63E11" fill-rule="evenodd" d="M87.502 5.887h4.994A7.493 7.493 0 01100 13.402v17.323a7.493 7.493 0 01-7.504 7.516h-4.994a7.493 7.493 0 01-7.504-7.516V13.402a7.493 7.493 0 017.504-7.515z" clip-rule="evenodd"/>
  <path fill="#fff" fill-opacity=".446" d="M94.067 26.2v2.974H83.774V14.507H93.88v2.975h-6.724v2.85h5.775v2.748h-5.775v3.12h6.91z"/>
  <path fill="#85BB2F" fill-rule="evenodd" d="M28.998 1.683h2.166c5.99 0 10.811 4.83 10.811 10.827v18.98a10.795 10.795 0 01-10.81 10.827h-2.167c-5.99 0-10.81-4.83-10.81-10.827V12.51a10.795 10.795 0 0110.81-10.827z" clip-rule="evenodd"/>
  <path fill="#fff" d="M38.128 27.108c0 .835-.158 1.562-.474 2.179a4.505 4.505 0 01-1.297 1.552c-.549.4-1.19.709-1.92.926-.733.2-1.506.3-2.32.3h-8.632V12.727h9.854a3.26 3.26 0 011.67.436c.5.29.924.672 1.273 1.144.35.454.615.98.798 1.58.2.58.3 1.18.3 1.797 0 .926-.217 1.798-.649 2.615a4.093 4.093 0 01-1.896 1.852c1.015.327 1.813.908 2.395 1.743.599.835.898 1.907.898 3.214zm-4.166-.899c0-.599-.158-1.107-.474-1.525-.316-.418-.715-.626-1.197-.626h-4.715v4.221h4.54c.532 0 .973-.19 1.322-.572.35-.381.524-.88.524-1.498zm-6.386-9.669v4.004h4.016c.45 0 .849-.163 1.198-.49.349-.327.524-.835.524-1.525 0-.636-.158-1.126-.474-1.471-.3-.345-.666-.518-1.098-.518h-4.166z"/>
</svg>