<svg xmlns="http://www.w3.org/2000/svg" width="100" height="44" fill="none" viewBox="0 0 100 44">
  <path fill="#038141" fill-rule="evenodd" d="M11.574 5.887h20.002V38.24H11.574V5.887z" clip-rule="evenodd"/>
  <path fill="#E63E11" fill-rule="evenodd" d="M69.823 5.887h20.002V38.24H69.823V5.887z" clip-rule="evenodd"/>
  <path fill="#038141" fill-rule="evenodd" d="M7.504 5.887h4.994a7.493 7.493 0 017.504 7.515v17.323a7.493 7.493 0 01-7.504 7.516H7.504A7.493 7.493 0 010 30.725V13.402a7.493 7.493 0 017.504-7.515z" clip-rule="evenodd"/>
  <path fill="#EE8100" fill-rule="evenodd" d="M60.03 5.887h20.002V38.24H60.03V5.887z" clip-rule="evenodd"/>
  <path fill="#fff" fill-opacity=".446" d="M64.912 29.174V14.507h5.466c1.21 0 2.27.193 3.177.578.907.386 1.664.91 2.269 1.57a6.339 6.339 0 011.382 2.335c.316.881.474 1.825.474 2.83 0 1.115-.172 2.128-.516 3.037a6.558 6.558 0 01-1.485 2.313c-.632.634-1.402 1.13-2.31 1.488-.894.344-1.89.516-2.99.516h-5.467zm9.323-7.354c0-.647-.089-1.233-.268-1.756a3.828 3.828 0 00-.742-1.384 3.28 3.28 0 00-1.217-.889c-.482-.206-1.025-.31-1.63-.31h-2.083V26.2h2.083c.619 0 1.17-.11 1.65-.33.482-.22.88-.523 1.197-.91.33-.398.577-.86.742-1.383a5.532 5.532 0 00.268-1.756z"/>
  <path fill="#FECB02" fill-rule="evenodd" d="M38.945 5.887h21.12V38.24h-21.12V5.887z" clip-rule="evenodd"/>
  <path fill="#85BB2F" fill-rule="evenodd" d="M39.97 5.887H19.968V38.24H39.97V5.887z" clip-rule="evenodd"/>
  <path fill="#fff" fill-opacity=".446" d="M42.832 22.226c0-.881.165-1.756.495-2.623a7.158 7.158 0 011.444-2.356 7.335 7.335 0 012.31-1.673c.907-.427 1.939-.64 3.094-.64 1.375 0 2.565.296 3.568.888 1.018.592 1.774 1.363 2.27 2.314l-2.6 1.818a2.815 2.815 0 00-.64-.95 2.952 2.952 0 00-.824-.62 3.008 3.008 0 00-.928-.33 4.354 4.354 0 00-.928-.104c-.647 0-1.21.13-1.692.392-.481.262-.88.6-1.196 1.013a4.21 4.21 0 00-.702 1.404 5.7 5.7 0 00-.227 1.591c0 .578.09 1.136.269 1.673.178.538.433 1.013.763 1.426.344.413.75.743 1.217.991a3.63 3.63 0 001.609.352c.302 0 .612-.035.928-.104.33-.082.64-.2.928-.35.303-.166.578-.373.825-.62.248-.262.447-.58.598-.951l2.764 1.632c-.22.537-.55 1.02-.99 1.446a5.861 5.861 0 01-1.485 1.074c-.564.29-1.162.51-1.794.661a7.955 7.955 0 01-1.857.228c-1.059 0-2.035-.214-2.929-.64a7.695 7.695 0 01-2.29-1.736 8.167 8.167 0 01-1.485-2.438 7.769 7.769 0 01-.515-2.768zM33.925 25.414c0 .634-.13 1.185-.392 1.653-.26.468-.618.86-1.072 1.178a5.4 5.4 0 01-1.588.702 7.871 7.871 0 01-1.919.227h-7.137V14.507h8.148c.509 0 .97.11 1.382.33.412.22.763.51 1.052.868.289.344.509.744.66 1.198a3.905 3.905 0 01-.289 3.347c-.344.62-.866 1.088-1.567 1.405.838.247 1.499.688 1.98 1.322.495.633.742 1.446.742 2.437zm-3.444-.681c0-.455-.131-.84-.392-1.157a1.23 1.23 0 00-.99-.475H25.2v3.202h3.754c.44 0 .805-.145 1.093-.434.29-.29.434-.668.434-1.136zm-5.28-7.334v3.037h3.32c.371 0 .701-.124.99-.372.289-.248.433-.634.433-1.157 0-.482-.13-.854-.392-1.116a1.201 1.201 0 00-.907-.392H25.2z"/>
  <path fill="#fff" fill-rule="evenodd" d="M48.27 0h2.472C57.578 0 63.08 5.229 63.08 11.724v20.552C63.08 38.77 57.578 44 50.742 44H48.27c-6.835 0-12.338-5.229-12.338-11.724V11.724C35.931 5.23 41.434 0 48.27 0z" clip-rule="evenodd"/>
  <path fill="#fff" fill-opacity=".446" d="M7.375 14.507h3.053l5.342 14.667h-3.465l-1.134-3.284H6.612l-1.114 3.284H2.033l5.342-14.667zm3.239 9.048L8.902 18.37l-1.754 5.185h3.466z"/>
  <path fill="#E63E11" fill-rule="evenodd" d="M87.502 5.887h4.994A7.493 7.493 0 01100 13.402v17.323a7.493 7.493 0 01-7.504 7.516h-4.994a7.493 7.493 0 01-7.504-7.516V13.402a7.493 7.493 0 017.504-7.515z" clip-rule="evenodd"/>
  <path fill="#fff" fill-opacity=".446" d="M94.067 26.2v2.974H83.774V14.507H93.88v2.975h-6.724v2.85h5.775v2.748h-5.775v3.12h6.91z"/>
  <path fill="#FECB02" fill-rule="evenodd" d="M48.421 1.683h2.167c5.989 0 10.81 4.83 10.81 10.827v18.98a10.795 10.795 0 01-10.81 10.827h-2.167a10.795 10.795 0 01-10.81-10.827V12.51A10.795 10.795 0 0148.42 1.683z" clip-rule="evenodd"/>
  <path fill="#fff" d="M41.16 22.233c0-1.162.2-2.315.599-3.46a9.622 9.622 0 011.746-3.104 8.947 8.947 0 012.794-2.206c1.098-.563 2.345-.845 3.742-.845 1.663 0 3.102.39 4.316 1.171 1.23.781 2.145 1.798 2.743 3.051l-3.143 2.397c-.2-.509-.457-.926-.773-1.253a3.613 3.613 0 00-.998-.817 3.443 3.443 0 00-1.122-.436 4.851 4.851 0 00-1.123-.136c-.782 0-1.463.172-2.045.517a4.632 4.632 0 00-1.447 1.335 5.762 5.762 0 00-.848 1.852 8.151 8.151 0 00-.275 2.097c0 .763.108 1.498.325 2.206.216.708.523 1.335.922 1.88.416.544.907.98 1.472 1.307.582.309 1.23.463 1.946.463.366 0 .74-.045 1.123-.136.399-.11.773-.264 1.122-.463a4.41 4.41 0 00.998-.817c.3-.345.54-.763.723-1.253l3.343 2.152a5.642 5.642 0 01-1.197 1.906 7.15 7.15 0 01-1.796 1.416 9.18 9.18 0 01-2.17.872c-.766.2-1.514.3-2.246.3-1.28 0-2.461-.282-3.542-.845a9.433 9.433 0 01-2.769-2.288 10.98 10.98 0 01-1.796-3.214 11.063 11.063 0 01-.624-3.65z"/>
</svg>