<svg xmlns="http://www.w3.org/2000/svg" width="100" height="44" fill="none" viewBox="0 0 100 44">
  <path fill="#038141" fill-rule="evenodd" d="M11.574 5.887h20.002V38.24H11.574V5.887z" clip-rule="evenodd"/>
  <path fill="#E63E11" fill-rule="evenodd" d="M69.823 5.887h20.002V38.24H69.823V5.887z" clip-rule="evenodd"/>
  <path fill="#038141" fill-rule="evenodd" d="M7.504 5.887h4.994a7.493 7.493 0 017.504 7.515v17.323a7.493 7.493 0 01-7.504 7.516H7.504A7.493 7.493 0 010 30.725V13.402a7.493 7.493 0 017.504-7.515z" clip-rule="evenodd"/>
  <path fill="#EE8100" fill-rule="evenodd" d="M60.03 5.887h20.002V38.24H60.03V5.887z" clip-rule="evenodd"/>
  <path fill="#fff" fill-opacity=".446" d="M63.647 29.684V15.016h5.466c1.21 0 2.27.193 3.177.579.907.385 1.664.909 2.269 1.57a6.341 6.341 0 011.382 2.334 8.32 8.32 0 01.474 2.83c0 1.116-.172 2.128-.515 3.037a6.558 6.558 0 01-1.486 2.314c-.632.633-1.402 1.13-2.31 1.487-.894.345-1.89.517-2.99.517h-5.467zm9.324-7.355c0-.647-.09-1.232-.269-1.756a3.827 3.827 0 00-.742-1.384 3.28 3.28 0 00-1.217-.888c-.481-.207-1.025-.31-1.63-.31H67.03v8.718h2.083c.62 0 1.17-.11 1.65-.33.482-.221.88-.524 1.197-.91.33-.399.577-.86.742-1.384a5.529 5.529 0 00.269-1.756z"/>
  <path fill="#FECB02" fill-rule="evenodd" d="M38.945 5.887h21.12V38.24h-21.12V5.887z" clip-rule="evenodd"/>
  <path fill="#85BB2F" fill-rule="evenodd" d="M39.97 5.887H19.968V38.24H39.97V5.887z" clip-rule="evenodd"/>
  <path fill="#fff" fill-opacity=".446" d="M41.267 21.593c0-.882.165-1.756.495-2.624a7.158 7.158 0 011.444-2.355 7.335 7.335 0 012.31-1.673c.907-.427 1.939-.64 3.094-.64 1.375 0 2.564.295 3.568.887 1.018.593 1.774 1.364 2.27 2.314l-2.6 1.818a2.816 2.816 0 00-.64-.95 2.952 2.952 0 00-.824-.62 3.004 3.004 0 00-.928-.33 4.36 4.36 0 00-.929-.104c-.646 0-1.21.131-1.691.393-.481.262-.88.599-1.197 1.012-.316.413-.55.881-.7 1.405a5.704 5.704 0 00-.228 1.59c0 .579.09 1.137.269 1.674.178.537.433 1.012.763 1.425.343.413.75.744 1.217.992a3.63 3.63 0 001.608.351c.303 0 .613-.034.929-.103.33-.083.64-.2.928-.351.303-.166.578-.372.825-.62.248-.262.447-.579.598-.95l2.764 1.632c-.22.537-.55 1.019-.99 1.446a5.863 5.863 0 01-1.485 1.074c-.564.29-1.162.51-1.794.661a7.955 7.955 0 01-1.857.227c-1.059 0-2.035-.213-2.929-.64a7.694 7.694 0 01-2.29-1.735 8.165 8.165 0 01-1.485-2.438 7.77 7.77 0 01-.515-2.768zM37.087 25.414c0 .634-.13 1.185-.392 1.653-.26.468-.618.86-1.072 1.178a5.401 5.401 0 01-1.588.702 7.873 7.873 0 01-1.919.227H24.98V14.507h8.147c.509 0 .97.11 1.382.33.413.22.763.51 1.052.868.289.344.509.744.66 1.198a3.904 3.904 0 01-.289 3.347c-.343.62-.866 1.088-1.567 1.405.838.247 1.499.688 1.98 1.322.495.633.742 1.446.742 2.437zm-3.444-.681c0-.455-.13-.84-.392-1.157a1.23 1.23 0 00-.99-.475h-3.899v3.202h3.754c.44 0 .805-.145 1.094-.434.288-.29.433-.668.433-1.136zm-5.28-7.334v3.037h3.32c.371 0 .702-.124.99-.372.29-.248.433-.634.433-1.157 0-.482-.13-.854-.391-1.116a1.202 1.202 0 00-.908-.392h-3.445zM7.375 14.507h3.053l5.342 14.667h-3.465l-1.134-3.284H6.612l-1.114 3.284H2.033l5.342-14.667zm3.239 9.048L8.902 18.37l-1.754 5.185h3.466z"/>
  <path fill="#E63E11" fill-rule="evenodd" d="M87.502 5.887h4.994A7.493 7.493 0 01100 13.402v17.323a7.493 7.493 0 01-7.504 7.516h-4.994a7.493 7.493 0 01-7.504-7.516V13.402a7.493 7.493 0 017.504-7.515z" clip-rule="evenodd"/>
  <path fill="#fff" fill-opacity=".446" d="M96.526 26.2v2.974H86.233V14.507h10.108v2.975h-6.725v2.85h5.776v2.748h-5.776v3.12h6.91z"/>
  <path fill="#fff" fill-rule="evenodd" d="M68.795 0h2.473c6.835 0 12.338 5.229 12.338 11.724v20.552C83.606 38.77 78.103 44 71.268 44h-2.473c-6.835 0-12.338-5.229-12.338-11.724V11.724C56.457 5.23 61.96 0 68.795 0z" clip-rule="evenodd"/>
  <path fill="#EE8100" fill-rule="evenodd" d="M68.948 1.683h2.167c5.989 0 10.81 4.83 10.81 10.827v18.98a10.795 10.795 0 01-10.81 10.827h-2.167c-5.99 0-10.81-4.83-10.81-10.827V12.51a10.795 10.795 0 0110.81-10.827z" clip-rule="evenodd"/>
  <path fill="#fff" d="M62.31 32.065V12.727h6.611c1.464 0 2.744.255 3.842.763 1.097.508 2.012 1.198 2.744 2.07.748.871 1.305 1.897 1.671 3.078.383 1.162.574 2.405.574 3.73 0 1.472-.208 2.806-.624 4.005-.415 1.18-1.014 2.197-1.796 3.05a8.043 8.043 0 01-2.794 1.961c-1.08.454-2.286.681-3.617.681h-6.61zm11.276-9.696c0-.854-.108-1.625-.324-2.315-.2-.708-.5-1.317-.898-1.825-.4-.508-.89-.899-1.472-1.171-.582-.273-1.24-.409-1.97-.409h-2.52v11.494h2.52c.748 0 1.413-.145 1.995-.436a4.042 4.042 0 001.447-1.198c.399-.527.698-1.135.898-1.825.216-.708.324-1.48.324-2.315z"/>
</svg>