<svg xmlns="http://www.w3.org/2000/svg" width="100" height="43" fill="none" viewBox="0 0 100 43">
  <path fill="#E63E11" fill-rule="evenodd" d="M68.124 5.753h19.515v31.618H68.124V5.753z" clip-rule="evenodd"/>
  <path fill="#fff" fill-opacity=".446" d="M91.777 25.604v2.907H81.735V14.177h9.86v2.907h-6.56v2.786h5.635v2.685h-5.635v3.049h6.742z"/>
  <path fill="#E63E11" fill-rule="evenodd" d="M85.372 5.753h4.873c4.055 0 7.32 3.276 7.32 7.345v16.929c0 4.069-3.264 7.344-7.32 7.344h-4.873c-4.056 0-7.321-3.275-7.321-7.344v-16.93c0-4.068 3.265-7.344 7.32-7.344z" clip-rule="evenodd"/>
  <path fill="#038141" fill-rule="evenodd" d="M11.292 5.753h19.515v31.618H11.292V5.753z" clip-rule="evenodd"/>
  <path fill="#EE8100" fill-rule="evenodd" d="M58.569 5.753h19.515v31.618H58.57V5.753z" clip-rule="evenodd"/>
  <path fill="#fff" fill-opacity=".446" d="M60.135 28.511V14.177h5.333c1.18 0 2.213.189 3.099.565.885.377 1.623.889 2.214 1.535a6.198 6.198 0 011.348 2.281 8.14 8.14 0 01.463 2.766c0 1.09-.168 2.08-.503 2.968a6.41 6.41 0 01-1.45 2.26c-.617.62-1.368 1.105-2.253 1.454-.872.337-1.845.505-2.918.505h-5.333zm9.096-7.187c0-.633-.087-1.205-.262-1.716a3.743 3.743 0 00-.724-1.353 3.202 3.202 0 00-1.188-.868c-.47-.202-1-.303-1.59-.303h-2.032v8.52h2.033c.603 0 1.14-.108 1.61-.323.47-.215.858-.511 1.167-.888.322-.39.563-.842.724-1.353a5.413 5.413 0 00.262-1.716z"/>
  <path fill="#FECB02" fill-rule="evenodd" d="M37.997 5.753h20.605v31.618H37.998V5.753z" clip-rule="evenodd"/>
  <path fill="#85BB2F" fill-rule="evenodd" d="M38.997 5.753H19.482v31.618h19.515V5.753z" clip-rule="evenodd"/>
  <path fill="#fff" fill-opacity=".446" d="M41.79 21.102c0-.861.16-1.716.482-2.564a6.998 6.998 0 011.409-2.302 7.156 7.156 0 012.254-1.635c.885-.417 1.892-.626 3.019-.626 1.341 0 2.502.29 3.481.868.993.58 1.73 1.333 2.214 2.262l-2.536 1.776a2.751 2.751 0 00-.624-.929 2.882 2.882 0 00-.805-.605 2.93 2.93 0 00-.905-.323c-.309-.068-.61-.101-.906-.101-.63 0-1.18.128-1.65.383-.47.256-.859.586-1.167.99a4.118 4.118 0 00-.685 1.373 5.58 5.58 0 00-.221 1.554c0 .565.087 1.11.262 1.635.174.525.422.99.744 1.393.336.404.731.727 1.188.97.47.228.992.343 1.57.343.294 0 .596-.034.905-.101.322-.081.624-.196.905-.344.296-.161.564-.363.806-.605.241-.256.436-.566.583-.929l2.697 1.595a4.149 4.149 0 01-.966 1.413 5.717 5.717 0 01-1.45 1.05 7.794 7.794 0 01-1.75.646 7.752 7.752 0 01-1.811.222c-1.033 0-1.986-.209-2.858-.626a7.509 7.509 0 01-2.234-1.696 7.98 7.98 0 01-1.449-2.382 7.604 7.604 0 01-.503-2.705zM36.185 24.837c0 .619-.128 1.157-.383 1.615a3.426 3.426 0 01-1.046 1.15c-.443.297-.96.526-1.55.687a7.671 7.671 0 01-1.871.222H24.37V14.177h7.95c.496 0 .946.108 1.348.323.403.216.745.498 1.026.848.282.336.497.727.644 1.171a3.822 3.822 0 01-.282 3.27c-.335.606-.845 1.064-1.529 1.373.819.243 1.463.673 1.932 1.293.483.619.725 1.413.725 2.382zm-3.361-.666c0-.445-.128-.822-.383-1.131a1.199 1.199 0 00-.966-.464h-3.803v3.129h3.663c.429 0 .784-.141 1.066-.424.282-.283.423-.653.423-1.11zm-5.152-7.168v2.968h3.24c.362 0 .684-.12.966-.363.282-.242.423-.62.423-1.13 0-.472-.128-.835-.383-1.09a1.171 1.171 0 00-.885-.385h-3.361z"/>
  <path fill="#fff" fill-rule="evenodd" d="M85.55 0h2.412C94.632 0 100 5.11 100 11.458v20.084C100 37.89 94.631 43 87.962 43H85.55c-6.669 0-12.037-5.11-12.037-11.458V11.458C73.512 5.11 78.88 0 85.549 0z" clip-rule="evenodd"/>
  <path fill="#E63E11" fill-rule="evenodd" d="M85.699 1.645h2.114c5.843 0 10.547 4.72 10.547 10.581v18.548c0 5.862-4.704 10.58-10.547 10.58h-2.114c-5.843 0-10.548-4.718-10.548-10.58V12.226c0-5.862 4.705-10.58 10.548-10.58z" clip-rule="evenodd"/>
  <path fill="#fff" d="M91.757 27.503v3.833H79.612V12.438h11.926v3.833h-7.934v3.673h6.815v3.54h-6.815v4.02h8.153z"/>
  <path fill="#038141" fill-rule="evenodd" d="M7.321 5.753h4.873c4.056 0 7.321 3.276 7.321 7.345v16.93c0 4.068-3.265 7.343-7.321 7.343H7.321C3.265 37.371 0 34.096 0 30.027v-16.93C0 9.03 3.265 5.753 7.321 5.753z" clip-rule="evenodd"/>
  <path fill="#fff" fill-opacity=".446" d="M7.196 14.177h2.978l5.213 14.334h-3.381l-1.107-3.21H6.45l-1.087 3.21h-3.38l5.212-14.334zm3.16 8.843l-1.671-5.068-1.71 5.068h3.38z"/>
</svg>